<?xml version="1.0" encoding="UTF-8" standalone="no"?>
<!-- Created with Inkscape (http://www.inkscape.org/) -->

<svg
   xmlns:dc="http://purl.org/dc/elements/1.1/"
   xmlns:cc="http://creativecommons.org/ns#"
   xmlns:rdf="http://www.w3.org/1999/02/22-rdf-syntax-ns#"
   xmlns:svg="http://www.w3.org/2000/svg"
   xmlns="http://www.w3.org/2000/svg"
   xmlns:sodipodi="http://sodipodi.sourceforge.net/DTD/sodipodi-0.dtd"
   xmlns:inkscape="http://www.inkscape.org/namespaces/inkscape"
   width="118.59225mm"
   height="114.08563mm"
   viewBox="0 0 420.20878 404.24043"
   id="svg3352"
   version="1.1"
   inkscape:version="0.91 r13725"
   sodipodi:docname="binding-pocket-size-flex.svg">
  <defs
     id="defs3354" />
  <sodipodi:namedview
     id="base"
     pagecolor="#ffffff"
     bordercolor="#666666"
     borderopacity="1.0"
     inkscape:pageopacity="0.0"
     inkscape:pageshadow="2"
     inkscape:zoom="0.98994949"
     inkscape:cx="-139.80973"
     inkscape:cy="118.97167"
     inkscape:document-units="px"
     inkscape:current-layer="layer1"
     showgrid="false"
     inkscape:object-nodes="true"
     fit-margin-top="0"
     fit-margin-left="0"
     fit-margin-right="0"
     fit-margin-bottom="0"
     inkscape:window-width="1920"
     inkscape:window-height="1030"
     inkscape:window-x="0"
     inkscape:window-y="31"
     inkscape:window-maximized="1" />
  <metadata
     id="metadata3357">
    <rdf:RDF>
      <cc:Work
         rdf:about="">
        <dc:format>image/svg+xml</dc:format>
        <dc:type
           rdf:resource="http://purl.org/dc/dcmitype/StillImage" />
        <dc:title></dc:title>
      </cc:Work>
    </rdf:RDF>
  </metadata>
  <g
     inkscape:label="Layer 1"
     inkscape:groupmode="layer"
     id="layer1"
     transform="translate(-144.18144,-104.34912)">
    <g
       id="g4248"
       transform="translate(-5.714285,0)">
      <path
         inkscape:connector-curvature="0"
         id="rect3755"
         d="m 310.00004,179.37529 0,100.00001 100,0 0,-100.00001 -25.7188,0 c 0,13.40792 -10.8733,24.28126 -24.2812,24.28126 -13.4079,0 -24.2813,-10.87334 -24.2813,-24.28126 l -25.7187,0 z"
         style="fill:#91ceff;fill-opacity:1;stroke:#000000;stroke-width:2;stroke-linecap:butt;stroke-linejoin:miter;stroke-miterlimit:4;stroke-dasharray:none;stroke-dashoffset:0;stroke-opacity:1" />
      <circle
         id="path3759"
         style="fill:#c80000;fill-opacity:1;stroke:#000000;stroke-width:2;stroke-linecap:butt;stroke-linejoin:miter;stroke-miterlimit:4;stroke-dasharray:none;stroke-dashoffset:0;stroke-opacity:1"
         cx="359.99997"
         cy="179.37527"
         r="19.208773" />
      <path
         inkscape:connector-curvature="0"
         style="fill:#91ceff;fill-opacity:1;stroke:#000000;stroke-width:2;stroke-linecap:butt;stroke-linejoin:miter;stroke-miterlimit:4;stroke-dasharray:none;stroke-dashoffset:0;stroke-opacity:1"
         d="m 449.10434,179.37529 0,100.00001 100,0 0,-100.00001 -25.7187,0 c 0,13.40792 -10.8733,24.28126 -24.2813,24.28126 -13.4079,0 -24.2812,-10.87334 -24.2812,-24.28126 l -25.7188,0 z"
         id="path3767" />
      <circle
         style="fill:#c80000;fill-opacity:1;stroke:#000000;stroke-width:2;stroke-linecap:butt;stroke-linejoin:miter;stroke-miterlimit:4;stroke-dasharray:none;stroke-dashoffset:0;stroke-opacity:1"
         id="path3773"
         cx="499.10434"
         cy="143.36978"
         r="38.02066" />
      <path
         inkscape:connector-curvature="0"
         style="fill:#91ceff;fill-opacity:1;stroke:#000000;stroke-width:2;stroke-linecap:butt;stroke-linejoin:miter;stroke-miterlimit:4;stroke-dasharray:none;stroke-dashoffset:0;stroke-opacity:1"
         d="m 170.89564,179.37529 0,100.00001 100,0 0,-100.00001 -25.7188,0 c 0,13.40792 -10.8733,24.28126 -24.2812,24.28126 -13.4079,0 -24.2813,-10.87334 -24.2813,-24.28126 l -25.7187,0 z"
         id="path3769" />
      <circle
         style="fill:#c80000;fill-opacity:1;stroke:#000000;stroke-width:2;stroke-linecap:butt;stroke-linejoin:miter;stroke-miterlimit:4;stroke-dasharray:none;stroke-dashoffset:0;stroke-opacity:1"
         id="path3779"
         cx="220.89572"
         cy="189.58408"
         r="9.5051651" />
      <path
         inkscape:connector-curvature="0"
         id="path4244"
         d="m 149.89572,300.37531 420.20877,0"
         style="fill:none;fill-rule:evenodd;stroke:#000000;stroke-width:1px;stroke-linecap:butt;stroke-linejoin:miter;stroke-opacity:1" />
    </g>
    <g
       id="g4257"
       transform="translate(5.714295,-118)">
      <path
         inkscape:connector-curvature="0"
         id="rect3755-6"
         d="m 298.57147,505.08958 0,100.00001 100,0 0,-100.00001 -25.7188,0 c 0,13.40792 -10.8733,24.28126 -24.2812,24.28126 -13.4079,0 -24.2813,-10.87334 -24.2813,-24.28126 l -25.7187,0 z"
         style="fill:#91ceff;fill-opacity:1;stroke:#000000;stroke-width:2;stroke-linecap:butt;stroke-linejoin:miter;stroke-miterlimit:4;stroke-dasharray:none;stroke-dashoffset:0;stroke-opacity:1" />
      <circle
         id="path3759-5"
         style="fill:#c80000;fill-opacity:1;stroke:#000000;stroke-width:2;stroke-linecap:butt;stroke-linejoin:miter;stroke-miterlimit:4;stroke-dasharray:none;stroke-dashoffset:0;stroke-opacity:1"
         cx="348.57138"
         cy="505.08957"
         r="19.208773" />
      <path
         sodipodi:nodetypes="caccacczcc"
         inkscape:connector-curvature="0"
         style="fill:#91ceff;fill-opacity:1;stroke:#000000;stroke-width:2;stroke-linecap:butt;stroke-linejoin:miter;stroke-miterlimit:4;stroke-dasharray:none;stroke-dashoffset:0;stroke-opacity:1"
         d="m 423.67577,517.08959 c 0,0 11.6299,24.71073 14,38 2.9264,16.40775 0,50 0,50 l 100,0 c 0,0 -2.9263,-33.59225 0,-50 2.3702,-13.28927 14,-38 14,-38 l -23.7187,-12.00001 c -3.4702,12.95106 -23.4833,28.28126 -40.2813,28.28126 -16.7979,0 -36.811,-15.3302 -40.2812,-28.28126 z"
         id="path3767-5" />
      <circle
         style="fill:#c80000;fill-opacity:1;stroke:#000000;stroke-width:2;stroke-linecap:butt;stroke-linejoin:miter;stroke-miterlimit:4;stroke-dasharray:none;stroke-dashoffset:0;stroke-opacity:1"
         id="path3773-4"
         cx="487.67575"
         cy="491.08408"
         r="38.02066" />
      <path
         sodipodi:nodetypes="caccaccacc"
         inkscape:connector-curvature="0"
         style="fill:#91ceff;fill-opacity:1;stroke:#000000;stroke-width:2;stroke-linecap:butt;stroke-linejoin:miter;stroke-miterlimit:4;stroke-dasharray:none;stroke-dashoffset:0;stroke-opacity:1"
         d="m 171.46707,505.08958 c 0,0 -7.9875,33.12285 -10,50.00001 -1.9751,16.56265 -2,50 -2,50 l 100,0 c 0,0 -0.025,-33.43735 -2,-50 -2.0126,-16.87716 -10,-50.00001 -10,-50.00001 l -25.7188,4 c 3.4702,12.95106 -4.3779,20.28126 -12.2812,20.28126 -7.9033,0 -15.7515,-7.3302 -12.2813,-20.28126 z"
         id="path3769-2" />
      <circle
         style="fill:#c80000;fill-opacity:1;stroke:#000000;stroke-width:2;stroke-linecap:butt;stroke-linejoin:miter;stroke-miterlimit:4;stroke-dasharray:none;stroke-dashoffset:0;stroke-opacity:1"
         id="path3779-5"
         cx="209.46715"
         cy="515.2984"
         r="9.5051651" />
      <path
         inkscape:connector-curvature="0"
         id="path4246"
         d="m 138.46715,626.08954 420.20875,0"
         style="fill:none;fill-rule:evenodd;stroke:#000000;stroke-width:1px;stroke-linecap:butt;stroke-linejoin:miter;stroke-opacity:1" />
    </g>
  </g>
</svg>
